<svg width="800" height="520" viewBox="0 0 800 520" fill="none" xmlns="http://www.w3.org/2000/svg">
  <rect width="800" height="520" fill="#F3F8F6"/>
  <rect x="60" y="80" width="680" height="360" rx="36" fill="#FFFFFF"/>
  <path d="M210 260C210 220 242 188 282 188H334V236H282C268 236 258 246 258 260C258 274 268 284 282 284H334V332H282C242 332 210 300 210 260Z" fill="#F1C862"/>
  <path d="M352 260C352 220 384 188 424 188H476V236H424C410 236 400 246 400 260C400 274 410 284 424 284H476V332H424C384 332 352 300 352 260Z" fill="#F09A6D"/>
  <path d="M494 260C494 220 526 188 566 188H618V236H566C552 236 542 246 542 260C542 274 552 284 566 284H618V332H566C526 332 494 300 494 260Z" fill="#7CCCB8"/>
</svg>
